<svg id="visual" viewBox="0 0 900 600" width="900" height="600" xmlns="http://www.w3.org/2000/svg" xmlns:xlink="http://www.w3.org/1999/xlink" version="1.1"><rect x="0" y="0" width="900" height="600" fill="#dedfe0"></rect><defs><linearGradient id="grad1_0" x1="33.3%" y1="0%" x2="100%" y2="100%"><stop offset="20%" stop-color="#6600ff" stop-opacity="1"></stop><stop offset="80%" stop-color="#6600ff" stop-opacity="1"></stop></linearGradient></defs><defs><linearGradient id="grad1_1" x1="33.3%" y1="0%" x2="100%" y2="100%"><stop offset="20%" stop-color="#6600ff" stop-opacity="1"></stop><stop offset="80%" stop-color="#4354ff" stop-opacity="1"></stop></linearGradient></defs><defs><linearGradient id="grad1_2" x1="33.3%" y1="0%" x2="100%" y2="100%"><stop offset="20%" stop-color="#3579ff" stop-opacity="1"></stop><stop offset="80%" stop-color="#4354ff" stop-opacity="1"></stop></linearGradient></defs><defs><linearGradient id="grad1_3" x1="33.3%" y1="0%" x2="100%" y2="100%"><stop offset="20%" stop-color="#3579ff" stop-opacity="1"></stop><stop offset="80%" stop-color="#5198ff" stop-opacity="1"></stop></linearGradient></defs><defs><linearGradient id="grad1_4" x1="33.3%" y1="0%" x2="100%" y2="100%"><stop offset="20%" stop-color="#7cb2fe" stop-opacity="1"></stop><stop offset="80%" stop-color="#5198ff" stop-opacity="1"></stop></linearGradient></defs><defs><linearGradient id="grad1_5" x1="33.3%" y1="0%" x2="100%" y2="100%"><stop offset="20%" stop-color="#7cb2fe" stop-opacity="1"></stop><stop offset="80%" stop-color="#abcaef" stop-opacity="1"></stop></linearGradient></defs><defs><linearGradient id="grad1_6" x1="33.3%" y1="0%" x2="100%" y2="100%"><stop offset="20%" stop-color="#dedfe0" stop-opacity="1"></stop><stop offset="80%" stop-color="#abcaef" stop-opacity="1"></stop></linearGradient></defs><defs><linearGradient id="grad2_0" x1="0%" y1="0%" x2="66.7%" y2="100%"><stop offset="20%" stop-color="#6600ff" stop-opacity="1"></stop><stop offset="80%" stop-color="#6600ff" stop-opacity="1"></stop></linearGradient></defs><defs><linearGradient id="grad2_1" x1="0%" y1="0%" x2="66.7%" y2="100%"><stop offset="20%" stop-color="#4354ff" stop-opacity="1"></stop><stop offset="80%" stop-color="#6600ff" stop-opacity="1"></stop></linearGradient></defs><defs><linearGradient id="grad2_2" x1="0%" y1="0%" x2="66.7%" y2="100%"><stop offset="20%" stop-color="#4354ff" stop-opacity="1"></stop><stop offset="80%" stop-color="#3579ff" stop-opacity="1"></stop></linearGradient></defs><defs><linearGradient id="grad2_3" x1="0%" y1="0%" x2="66.7%" y2="100%"><stop offset="20%" stop-color="#5198ff" stop-opacity="1"></stop><stop offset="80%" stop-color="#3579ff" stop-opacity="1"></stop></linearGradient></defs><defs><linearGradient id="grad2_4" x1="0%" y1="0%" x2="66.7%" y2="100%"><stop offset="20%" stop-color="#5198ff" stop-opacity="1"></stop><stop offset="80%" stop-color="#7cb2fe" stop-opacity="1"></stop></linearGradient></defs><defs><linearGradient id="grad2_5" x1="0%" y1="0%" x2="66.7%" y2="100%"><stop offset="20%" stop-color="#abcaef" stop-opacity="1"></stop><stop offset="80%" stop-color="#7cb2fe" stop-opacity="1"></stop></linearGradient></defs><defs><linearGradient id="grad2_6" x1="0%" y1="0%" x2="66.7%" y2="100%"><stop offset="20%" stop-color="#abcaef" stop-opacity="1"></stop><stop offset="80%" stop-color="#dedfe0" stop-opacity="1"></stop></linearGradient></defs><g transform="translate(900, 0)"><path d="M0 486.7C-59.5 459.6 -119 432.4 -165.7 400C-212.4 367.7 -246.3 330.1 -297 297C-347.7 263.8 -415.3 235 -449.7 186.3C-484.1 137.5 -485.4 68.8 -486.7 0L0 0Z" fill="#c4d5e8"></path><path d="M0 417.2C-51 393.9 -102 370.6 -142 342.9C-182.1 315.2 -211.1 283 -254.6 254.6C-298 226.1 -355.9 201.5 -385.5 159.7C-415 117.9 -416.1 58.9 -417.2 0L0 0Z" fill="#93bff7"></path><path d="M0 347.7C-42.5 328.3 -85 308.9 -118.4 285.7C-151.7 262.6 -175.9 235.8 -212.1 212.1C-248.4 188.4 -296.6 167.9 -321.2 133.1C-345.8 98.2 -346.7 49.1 -347.7 0L0 0Z" fill="#65a5ff"></path><path d="M0 278.1C-34 262.6 -68 247.1 -94.7 228.6C-121.4 210.1 -140.7 188.7 -169.7 169.7C-198.7 150.8 -237.3 134.3 -257 106.4C-276.6 78.6 -277.4 39.3 -278.1 0L0 0Z" fill="#3f89ff"></path><path d="M0 208.6C-25.5 197 -51 185.3 -71 171.4C-91 157.6 -105.5 141.5 -127.3 127.3C-149 113.1 -178 100.7 -192.7 79.8C-207.5 58.9 -208 29.5 -208.6 0L0 0Z" fill="#3768ff"></path><path d="M0 139.1C-17 131.3 -34 123.5 -47.3 114.3C-60.7 105.1 -70.4 94.3 -84.9 84.9C-99.3 75.4 -118.6 67.2 -128.5 53.2C-138.3 39.3 -138.7 19.6 -139.1 0L0 0Z" fill="#543aff"></path><path d="M0 69.5C-8.5 65.7 -17 61.8 -23.7 57.1C-30.3 52.5 -35.2 47.2 -42.4 42.4C-49.7 37.7 -59.3 33.6 -64.2 26.6C-69.2 19.6 -69.3 9.8 -69.5 0L0 0Z" fill="#6600ff"></path></g><g transform="translate(0, 600)"><path d="M0 -486.7C65.4 -482.4 130.8 -478 186.3 -449.7C241.8 -421.4 287.3 -369 316.8 -316.8C346.2 -264.5 359.6 -212.4 385.3 -159.6C410.9 -106.8 448.8 -53.4 486.7 0L0 0Z" fill="#c4d5e8"></path><path d="M0 -417.2C56.1 -413.5 112.1 -409.7 159.7 -385.5C207.2 -361.2 246.3 -316.3 271.5 -271.5C296.8 -226.7 308.2 -182 330.2 -136.8C352.2 -91.5 384.7 -45.8 417.2 0L0 0Z" fill="#93bff7"></path><path d="M0 -347.7C46.7 -344.6 93.4 -341.5 133.1 -321.2C172.7 -301 205.2 -263.6 226.3 -226.3C247.3 -189 256.9 -151.7 275.2 -114C293.5 -76.3 320.6 -38.1 347.7 0L0 0Z" fill="#65a5ff"></path><path d="M0 -278.1C37.4 -275.7 74.7 -273.2 106.4 -257C138.1 -240.8 164.2 -210.9 181 -181C197.9 -151.2 205.5 -121.4 220.1 -91.2C234.8 -61 256.5 -30.5 278.1 0L0 0Z" fill="#3f89ff"></path><path d="M0 -208.6C28 -206.7 56.1 -204.9 79.8 -192.7C103.6 -180.6 123.1 -158.2 135.8 -135.8C148.4 -113.4 154.1 -91 165.1 -68.4C176.1 -45.8 192.4 -22.9 208.6 0L0 0Z" fill="#3768ff"></path><path d="M0 -139.1C18.7 -137.8 37.4 -136.6 53.2 -128.5C69.1 -120.4 82.1 -105.4 90.5 -90.5C98.9 -75.6 102.7 -60.7 110.1 -45.6C117.4 -30.5 128.2 -15.3 139.1 0L0 0Z" fill="#543aff"></path><path d="M0 -69.5C9.3 -68.9 18.7 -68.3 26.6 -64.2C34.5 -60.2 41 -52.7 45.3 -45.3C49.5 -37.8 51.4 -30.3 55 -22.8C58.7 -15.3 64.1 -7.6 69.5 0L0 0Z" fill="#6600ff"></path></g></svg>