<svg id="visual" viewBox="0 0 900 600" width="900" height="600" xmlns="http://www.w3.org/2000/svg" xmlns:xlink="http://www.w3.org/1999/xlink" version="1.1"><path d="M782 600L728 533L773 467L764 400L692 333L728 267L728 200L701 133L710 67L719 0L900 0L900 67L900 133L900 200L900 267L900 333L900 400L900 467L900 533L900 600Z" fill="#0092cc"></path><path d="M485 600L566 533L503 467L566 400L485 333L503 267L458 200L485 133L485 67L476 0L720 0L711 67L702 133L729 200L729 267L693 333L765 400L774 467L729 533L783 600Z" fill="#0077c0"></path><path d="M359 600L440 533L404 467L431 400L404 333L377 267L377 200L404 133L377 67L368 0L477 0L486 67L486 133L459 200L504 267L486 333L567 400L504 467L567 533L486 600Z" fill="#005aaf"></path><path d="M143 600L143 533L143 467L107 400L134 333L143 267L143 200L98 133L125 67L161 0L369 0L378 67L405 133L378 200L378 267L405 333L432 400L405 467L441 533L360 600Z" fill="#003c9a"></path><path d="M0 600L0 533L0 467L0 400L0 333L0 267L0 200L0 133L0 67L0 0L162 0L126 67L99 133L144 200L144 267L135 333L108 400L144 467L144 533L144 600Z" fill="#031c82"></path></svg>